<svg width="19" height="19" viewBox="0 0 19 19" fill="none" xmlns="http://www.w3.org/2000/svg">
<path d="M18.2 9.71266C18.2 9.11332 18.142 8.49466 18.0453 7.91466H9.67401V11.3367H14.4687C14.2753 12.4387 13.6373 13.4053 12.69 14.024L15.5513 16.2473C17.2333 14.6813 18.2 12.4 18.2 9.71266Z" fill="#4280EF"/>
<path d="M9.67401 18.374C12.0713 18.374 14.082 17.5813 15.5513 16.228L12.69 14.024C11.8973 14.5653 10.8727 14.8747 9.67401 14.8747C7.35401 14.8747 5.40134 13.3087 4.68601 11.2207L1.74734 13.4827C3.25534 16.4793 6.31001 18.374 9.67401 18.374Z" fill="#34A353"/>
<path d="M4.68601 11.2013C4.31867 10.0993 4.31867 8.90067 4.68601 7.79867L1.74734 5.51733C0.490673 8.03067 0.490673 10.9887 1.74734 13.4827L4.68601 11.2013Z" fill="#F6B704"/>
<path d="M9.67401 4.14466C10.9307 4.12533 12.168 4.60866 13.0767 5.47866L15.6093 2.92666C14.0047 1.41866 11.878 0.60666 9.67401 0.625994C6.31001 0.625994 3.25534 2.52066 1.74734 5.51733L4.68601 7.79866C5.40134 5.69133 7.35401 4.14466 9.67401 4.14466Z" fill="#E54335"/>
</svg>
