<svg width="395" height="408" viewBox="0 0 395 408" fill="none" xmlns="http://www.w3.org/2000/svg">
<path d="M98.9317 317.62C153.371 344.417 241.629 344.425 296.068 317.62C350.507 290.814 350.499 247.37 296.068 220.573C241.637 193.776 153.371 193.776 98.9317 220.573C44.4928 247.37 44.5007 290.822 98.9317 317.62Z" fill="#F5F5F5"/>
<path d="M295.879 297.816C305.905 297.816 314.033 293.815 314.033 288.88C314.033 283.946 305.905 279.945 295.879 279.945C285.852 279.945 277.725 283.946 277.725 288.88C277.725 293.815 285.852 297.816 295.879 297.816Z" fill="#EBEBEB"/>
<path d="M94.8 290.161L101.223 286.334C104.809 283.312 107.538 279.345 109.123 274.853C111.106 269.207 110.829 264.914 109.407 262.76C107.661 260.108 103.134 260.573 102.953 266.155C102.574 277.154 99.4689 284.784 94.8 290.161Z" fill="#BA68C8"/>
<path opacity="0.2" d="M94.8 290.161L101.223 286.334C104.809 283.312 107.538 279.345 109.123 274.853C111.106 269.207 110.829 264.914 109.407 262.76C107.661 260.108 103.134 260.573 102.953 266.155C102.574 277.154 99.4689 284.784 94.8 290.161Z" fill="black"/>
<path d="M94.8 290.569C94.7163 290.568 94.6352 290.54 94.5682 290.488C94.5012 290.436 94.4519 290.364 94.4273 290.281C94.4027 290.199 94.4041 290.11 94.4313 290.029C94.4586 289.947 94.5102 289.876 94.5788 289.827C109.431 279.219 106.555 264.425 106.524 264.278C106.513 264.224 106.512 264.169 106.522 264.115C106.532 264.061 106.552 264.01 106.581 263.964C106.61 263.918 106.647 263.879 106.691 263.848C106.735 263.817 106.784 263.795 106.836 263.784C106.888 263.773 106.941 263.772 106.993 263.782C107.045 263.793 107.095 263.813 107.139 263.843C107.184 263.873 107.222 263.912 107.252 263.957C107.282 264.002 107.303 264.053 107.314 264.107C107.314 264.262 110.347 279.562 95.0528 290.496C94.9786 290.548 94.8898 290.574 94.8 290.569Z" fill="white"/>
<path d="M81.9309 297.84C81.9309 297.84 79.6952 295.963 80.2324 293.417C80.7696 290.871 82.2153 289.044 79.7426 285.763C77.2699 282.483 76.5826 278.109 79.5372 275.743C81.7887 273.907 85.3042 276.502 86.5682 271.663C87.5004 268.121 87.1844 260.28 91.5531 257.668C95.9218 255.057 98.6631 258.99 97.9758 264.311C97.3754 269.068 96.5222 273.646 97.1858 274.919C98.4656 277.367 100.654 277.032 100.551 281.504C100.464 285.665 96.6486 289.109 96.6486 289.109L81.9309 297.84Z" fill="#BA68C8"/>
<path d="M89.27 293.85C89.1734 293.849 89.0804 293.812 89.0079 293.746C88.9354 293.68 88.8882 293.59 88.875 293.491C87.7453 283.821 90.455 267.126 92.667 262.164C92.6856 262.109 92.7154 262.059 92.7545 262.017C92.7935 261.975 92.8408 261.942 92.8932 261.92C92.9456 261.899 93.0019 261.889 93.0582 261.892C93.1146 261.894 93.1698 261.909 93.22 261.936C93.2671 261.958 93.3096 261.989 93.3448 262.029C93.3799 262.068 93.4072 262.114 93.4249 262.164C93.4425 262.214 93.4503 262.267 93.4477 262.321C93.445 262.374 93.4321 262.426 93.4096 262.475C91.2213 267.371 88.6064 284.115 89.6887 293.36C89.6998 293.467 89.6695 293.574 89.6044 293.658C89.5393 293.743 89.4446 293.797 89.3411 293.809L89.27 293.85Z" fill="white"/>
<path d="M89.0567 286.318C88.9962 286.321 88.9361 286.307 88.8829 286.277C86.1416 284.898 84.4036 279.978 84.3325 279.749C84.3131 279.699 84.3038 279.644 84.3051 279.59C84.3064 279.535 84.3183 279.481 84.34 279.432C84.3617 279.382 84.3929 279.337 84.4317 279.3C84.4704 279.263 84.516 279.235 84.5656 279.216C84.6153 279.197 84.6681 279.189 84.7208 279.192C84.7735 279.195 84.8252 279.209 84.8727 279.233C84.9202 279.257 84.9626 279.29 84.9973 279.331C85.0321 279.372 85.0585 279.42 85.0751 279.472C85.0751 279.521 86.7736 284.286 89.2305 285.518C89.3111 285.559 89.376 285.626 89.4147 285.71C89.4533 285.793 89.4633 285.888 89.4431 285.978C89.4229 286.068 89.3737 286.148 89.3035 286.206C89.2333 286.263 89.1462 286.294 89.0567 286.294V286.318Z" fill="white"/>
<path d="M89.0093 289.582C88.9301 289.582 88.8529 289.557 88.7879 289.51C88.7229 289.464 88.6734 289.398 88.6459 289.321C88.6066 289.221 88.6069 289.11 88.6469 289.01C88.6868 288.911 88.7631 288.832 88.8592 288.791C93.4728 286.881 96.3484 281.21 96.38 281.145C96.4282 281.048 96.5114 280.976 96.6114 280.943C96.7114 280.91 96.82 280.919 96.9132 280.969C97.0065 281.019 97.0768 281.105 97.1086 281.208C97.1405 281.312 97.1313 281.424 97.0831 281.52C96.9567 281.765 94.0416 287.526 89.1831 289.549C89.129 289.576 89.069 289.587 89.0093 289.582Z" fill="white"/>
<path d="M250.272 245.681C250.272 245.681 246.82 239.904 246.48 233.629C246.14 227.354 247.475 224.743 249.308 223.992C251.141 223.241 251.283 225.551 252.223 226.913C253.163 228.276 255.083 227.501 255.794 223.249C256.505 218.998 259.096 211.825 264.484 210.43C270.409 208.912 267.233 216.093 265.74 218.892C264.247 221.691 263.094 225.51 264.073 226.546C265.053 227.582 266.578 225.665 268.023 227.444C269.785 229.59 264.31 237.317 261.166 239.186L250.272 245.681Z" fill="#BA68C8"/>
<path d="M255.004 243.258C254.952 243.256 254.901 243.243 254.854 243.221C254.807 243.198 254.764 243.166 254.729 243.127C254.694 243.087 254.667 243.041 254.649 242.991C254.631 242.941 254.623 242.887 254.625 242.833C255.16 232.739 258.207 222.958 263.473 214.437C263.503 214.392 263.541 214.355 263.585 214.326C263.63 214.297 263.679 214.278 263.731 214.27C263.782 214.261 263.835 214.264 263.886 214.277C263.937 214.29 263.984 214.314 264.026 214.347C264.109 214.41 264.164 214.505 264.18 214.61C264.197 214.715 264.172 214.823 264.113 214.91C258.941 223.307 255.949 232.937 255.423 242.874C255.42 242.928 255.406 242.98 255.384 243.029C255.361 243.077 255.329 243.12 255.29 243.156C255.252 243.191 255.206 243.219 255.157 243.236C255.108 243.254 255.056 243.261 255.004 243.258Z" fill="white"/>
<path d="M255.454 238.435C255.388 238.435 255.323 238.418 255.265 238.386C253.053 237.121 251.828 233.368 251.781 233.213C251.763 233.162 251.756 233.108 251.759 233.054C251.762 233 251.775 232.947 251.798 232.899C251.821 232.85 251.852 232.807 251.892 232.771C251.931 232.735 251.976 232.708 252.026 232.691C252.125 232.657 252.234 232.666 252.327 232.715C252.42 232.764 252.491 232.849 252.523 232.952C252.523 232.952 253.708 236.567 255.683 237.668C255.773 237.723 255.839 237.811 255.866 237.914C255.894 238.018 255.883 238.128 255.834 238.223C255.798 238.293 255.743 238.351 255.675 238.389C255.608 238.426 255.531 238.443 255.454 238.435Z" fill="white"/>
<path d="M255.841 235.963C255.754 235.962 255.669 235.931 255.601 235.875C255.532 235.818 255.483 235.74 255.462 235.653C255.449 235.601 255.446 235.548 255.454 235.495C255.461 235.442 255.478 235.392 255.505 235.346C255.531 235.301 255.566 235.261 255.608 235.229C255.649 235.198 255.697 235.175 255.747 235.163C261.45 233.67 263.425 230.585 263.441 230.553C263.469 230.507 263.506 230.468 263.548 230.437C263.591 230.406 263.639 230.384 263.69 230.372C263.741 230.36 263.794 230.359 263.846 230.368C263.897 230.378 263.946 230.397 263.99 230.426C264.034 230.455 264.073 230.493 264.103 230.537C264.133 230.581 264.154 230.631 264.165 230.684C264.177 230.736 264.178 230.791 264.169 230.844C264.16 230.897 264.141 230.948 264.113 230.993C264.026 231.132 261.972 234.372 255.944 235.955L255.841 235.963Z" fill="white"/>
<path d="M164.32 233.001C164.32 233.001 156.744 231.091 156.349 216.436C155.93 200.622 158.205 182.164 149.239 180.671C140.272 179.177 135.295 190.463 135.406 203.641C135.509 215.179 140.012 240.23 164.288 245.143L164.32 233.001Z" fill="#BA68C8"/>
<path opacity="0.2" d="M164.32 233.001C164.32 233.001 156.744 231.091 156.349 216.436C155.93 200.622 158.205 182.164 149.239 180.671C140.272 179.177 135.295 190.463 135.406 203.641C135.509 215.179 140.012 240.23 164.288 245.143L164.32 233.001Z" fill="black"/>
<path d="M164.32 243.641H164.249C158.79 242.613 154.342 239.504 151.032 234.412C141.22 219.292 144.309 191.058 145.328 186.13C145.351 186.025 145.412 185.933 145.499 185.873C145.586 185.814 145.692 185.792 145.794 185.811C145.897 185.837 145.986 185.902 146.043 185.993C146.1 186.084 146.122 186.194 146.103 186.301C145.099 191.197 142.026 219.072 151.688 233.955C153.094 236.263 154.95 238.245 157.136 239.773C159.323 241.301 161.794 242.343 164.391 242.833C164.443 242.843 164.492 242.863 164.536 242.893C164.58 242.923 164.617 242.961 164.647 243.006C164.676 243.051 164.697 243.101 164.707 243.154C164.717 243.207 164.717 243.262 164.707 243.315C164.69 243.408 164.642 243.491 164.571 243.551C164.5 243.611 164.411 243.643 164.32 243.641Z" fill="white"/>
<path d="M164.32 281.251C156.491 282.344 143.78 282.328 136.441 276.355C129.102 270.382 130.634 265.241 133.455 263.095C136.275 260.949 138.724 258.501 133.873 253.735C129.023 248.97 121.233 241.316 118.705 229.835C116.177 218.353 117.426 211.173 122.387 208.782C127.198 206.464 128.47 210.153 131.416 217.758C134.363 225.363 140.991 218.843 146.663 221.218C152.336 223.592 152.107 228.292 152.462 232.332C152.818 236.371 154.69 237.489 157.905 237.489C161.12 237.489 164.32 239.398 164.32 243.201V281.251Z" fill="#BA68C8"/>
<path d="M164.32 267.917C164.286 267.925 164.251 267.925 164.217 267.917C163.878 267.819 155.78 265.388 143.985 254.2C131.424 242.287 125.499 224.416 125.436 224.237C125.406 224.134 125.415 224.023 125.462 223.927C125.51 223.831 125.591 223.758 125.689 223.723C125.787 223.689 125.895 223.696 125.988 223.744C126.081 223.791 126.153 223.874 126.187 223.976C126.242 224.155 132.112 241.83 144.523 253.596C156.151 264.637 164.344 267.109 164.431 267.134C164.48 267.149 164.527 267.174 164.567 267.207C164.608 267.241 164.641 267.282 164.666 267.329C164.691 267.376 164.707 267.428 164.713 267.481C164.718 267.535 164.714 267.588 164.699 267.64C164.674 267.722 164.623 267.794 164.554 267.844C164.486 267.894 164.404 267.92 164.32 267.917Z" fill="white"/>
<path d="M147.28 257.04C147.2 257.041 147.122 257.017 147.057 256.97C146.992 256.923 146.943 256.856 146.916 256.779C144.38 250.055 143.804 235.669 143.756 235.057C143.754 234.949 143.792 234.845 143.863 234.766C143.934 234.687 144.031 234.639 144.135 234.633C144.239 234.634 144.338 234.675 144.413 234.747C144.489 234.82 144.537 234.918 144.546 235.024C144.546 235.171 145.139 249.884 147.627 256.485C147.646 256.535 147.655 256.589 147.654 256.643C147.653 256.697 147.641 256.75 147.62 256.8C147.599 256.849 147.568 256.894 147.53 256.931C147.492 256.968 147.447 256.997 147.398 257.016C147.36 257.03 147.32 257.038 147.28 257.04Z" fill="white"/>
<path d="M147.216 266.71C146.488 266.716 145.76 266.677 145.036 266.595C144.984 266.589 144.934 266.572 144.889 266.546C144.843 266.519 144.803 266.484 144.771 266.441C144.738 266.399 144.715 266.35 144.7 266.298C144.686 266.246 144.682 266.192 144.688 266.138C144.695 266.085 144.711 266.033 144.737 265.986C144.762 265.939 144.797 265.898 144.838 265.864C144.879 265.831 144.926 265.806 144.976 265.792C145.026 265.777 145.079 265.773 145.131 265.779C145.202 265.779 152.557 266.644 155.93 263.095C155.965 263.052 156.009 263.017 156.057 262.992C156.106 262.967 156.16 262.953 156.214 262.95C156.268 262.948 156.323 262.957 156.373 262.977C156.424 262.997 156.47 263.028 156.509 263.067C156.548 263.107 156.578 263.154 156.599 263.206C156.619 263.259 156.628 263.315 156.627 263.371C156.625 263.427 156.612 263.482 156.589 263.533C156.565 263.584 156.532 263.629 156.491 263.666C154.05 266.269 149.792 266.71 147.216 266.71Z" fill="white"/>
<path d="M141.528 112.192L140.675 107.108L136.283 110.095C135.882 109.279 135.313 108.563 134.616 107.998L136.717 102.122L132.767 101.217L129.876 106.929C128.83 107.111 127.816 107.452 126.866 107.94L125.61 103.632L120.917 107.443L121.225 112.502C120.27 113.608 119.403 114.792 118.634 116.043L114.763 115.839L112.046 122.131L115.372 123.6C115.024 124.901 114.805 126.235 114.716 127.582L110.489 131.596L111.335 136.688L115.735 133.702C116.134 134.517 116.703 135.23 117.402 135.791L115.34 141.674L119.29 142.572L123.43 138.41C124.385 138.255 124.148 136.394 125.191 135.864L126.447 140.156L131.132 136.354L131.014 134.363C131.962 133.269 135.548 130.862 136.322 129.605L137.294 127.973L140.012 121.682L138.748 119.316L137.341 116.231L141.528 112.192ZM127.19 128.928C123.588 131.849 122.45 132.494 121.842 128.585C121.233 124.677 123.295 118.736 126.898 115.807C130.5 112.877 131.875 112.673 132.522 116.574C133.17 120.474 130.8 126.039 127.19 128.928Z" fill="#E0E0E0"/>
<path d="M132.799 101.217L137.926 104.268L135.035 109.964L129.908 106.912L132.799 101.217Z" fill="#F5F5F5"/>
<path d="M145.802 110.16L141.41 113.147L136.283 110.095L140.675 107.108L145.802 110.16Z" fill="#F5F5F5"/>
<path d="M145.099 124.709L141.773 123.249L136.646 120.197L139.972 121.657L145.099 124.709Z" fill="#E0E0E0"/>
<path d="M115.332 141.674L120.459 144.718L122.561 138.842L117.433 135.791L115.332 141.674Z" fill="#E0E0E0"/>
<path d="M131.527 143.208L126.408 140.156L125.152 135.864L130.279 138.916L131.527 143.208Z" fill="#E0E0E0"/>
<path d="M146.648 115.244L145.802 110.16L141.41 113.147C141.006 112.33 140.434 111.615 139.735 111.049L141.837 105.174L137.926 104.268L135.027 109.98C133.981 110.163 132.966 110.504 132.017 110.992L130.769 106.7L126.076 110.511L126.384 115.57C125.428 116.684 124.561 117.876 123.793 119.136L119.914 118.932L117.197 125.223L120.522 126.692C120.178 127.997 119.959 129.333 119.867 130.682L115.648 134.64L116.493 139.732L120.886 136.745C121.29 137.559 121.862 138.272 122.561 138.834L120.459 144.709L124.409 145.615L127.301 139.903C128.351 139.723 129.368 139.379 130.318 138.883L131.567 143.175L136.259 139.373L135.951 134.314C136.907 133.208 137.773 132.023 138.542 130.772L142.421 130.968L145.139 124.677L141.766 123.216C142.115 121.912 142.338 120.575 142.429 119.226L146.648 115.244ZM132.325 132.012C128.731 134.934 125.286 134.142 124.63 130.242C123.975 126.341 126.368 120.801 129.971 117.879C133.573 114.958 137.01 115.758 137.665 119.658C138.321 123.559 135.927 129.091 132.325 132.012Z" fill="#EBEBEB"/>
<path d="M130.769 106.684L125.642 103.632L120.949 107.443L126.076 110.495L130.769 106.684Z" fill="#F5F5F5"/>
<path d="M120.949 107.443L121.257 112.502L126.384 115.554L126.076 110.495L120.949 107.443Z" fill="#E0E0E0"/>
<path d="M123.793 119.095L118.666 116.043L114.795 115.848L119.914 118.899L123.793 119.095Z" fill="#F5F5F5"/>
<path d="M114.795 115.848L112.077 122.131L117.197 125.183L119.914 118.899L114.795 115.848Z" fill="#E0E0E0"/>
<path d="M119.867 130.633L114.748 127.582L110.521 131.596L115.64 134.648L119.867 130.633Z" fill="#F5F5F5"/>
<path d="M116.493 139.74L111.366 136.688L110.521 131.596L115.64 134.648L116.493 139.74Z" fill="#E0E0E0"/>
<path d="M137.926 104.268L132.799 101.217L136.717 102.122L141.837 105.174L137.926 104.268Z" fill="#F5F5F5"/>
<path d="M118.571 89.1154V81.5184L112.717 84.2438C112.407 82.9549 111.872 81.7354 111.137 80.6453L114.826 72.9667L110.323 70.2821L105.726 77.4221C104.444 77.3065 103.153 77.4365 101.918 77.8056L101.27 71.2042L94.9027 75.0067L94.2628 82.3507C92.877 83.619 91.6028 85.0117 90.455 86.5123L85.8572 84.8803L81.3542 92.9424L85.0356 96.2064C84.3553 97.9832 83.8267 99.818 83.4556 101.69L77.6017 105.941V113.546L83.4556 110.821C83.7656 112.11 84.3011 113.329 85.0356 114.42L81.37 122.106L85.873 124.791L90.4708 117.651C91.7521 117.766 93.043 117.636 94.2786 117.267L94.9185 123.869L101.286 120.066L101.934 112.722C103.921 111.973 105.682 110.695 107.037 109.018L110.339 110.217L114.842 102.163L112.077 99.7152C112.678 97.6738 112.9 95.534 112.733 93.4075L118.571 89.1154ZM98.0864 108.096C93.2042 111.009 90.1864 108.912 90.1864 103.11C90.1864 97.308 94.2233 90.1354 99.1134 87.2222C104.003 84.3091 106.958 86.4062 106.958 92.257C106.958 98.1077 102.976 105.174 98.0864 108.096Z" fill="#E0E0E0"/>
<path d="M115.443 73.3258L110.324 70.2821L105.726 77.4221L110.845 80.4739L115.443 73.3258Z" fill="#F5F5F5"/>
<path d="M123.698 84.5702L118.571 81.5184L112.717 84.2438L117.844 87.2957L123.698 84.5702Z" fill="#F5F5F5"/>
<path d="M100.022 126.921L94.9027 123.869L94.2628 117.267L99.382 120.319L100.022 126.921Z" fill="#E0E0E0"/>
<path d="M81.3463 122.106L86.4734 125.158L90.1627 117.48L85.0356 114.428L81.3463 122.106Z" fill="#E0E0E0"/>
<path d="M123.698 92.208V84.611L117.844 87.312C117.537 86.0219 117.002 84.8018 116.264 83.7134L119.954 76.0349L115.451 73.3421L110.853 80.4902C109.571 80.3706 108.28 80.5007 107.045 80.8738L106.397 74.256L100.03 78.0586L99.382 85.4026C97.9982 86.673 96.7241 88.0654 95.5742 89.5642L90.9764 87.9322L86.4734 95.9942L90.1627 99.2582C89.4789 101.034 88.9501 102.869 88.5827 104.742L82.7288 108.993V116.598L88.5827 113.873C88.8893 115.163 89.4251 116.383 90.1627 117.471L86.4734 125.15L90.9764 127.835L95.5742 120.695C96.8555 120.81 98.1465 120.68 99.382 120.311L100.03 126.912L106.397 123.11L107.037 115.766C108.423 114.498 109.697 113.105 110.845 111.604L115.443 113.236L119.946 105.182L116.256 101.918C116.94 100.143 117.469 98.3076 117.836 96.4349L123.698 92.208ZM103.213 111.188C98.3234 114.101 94.3576 111.735 94.3576 105.909C94.3576 100.082 98.3076 92.9914 103.213 90.0701C108.119 87.1488 112.061 89.5234 112.061 95.3496C112.061 101.176 108.096 108.226 103.213 111.147V111.188Z" fill="#EBEBEB"/>
<path d="M90.455 86.5286L95.5742 89.5805L90.9764 87.924L85.8572 84.864L90.455 86.5286Z" fill="#F0F0F0"/>
<path d="M85.8566 84.8723L81.3524 92.9371L86.4778 95.9912L90.982 87.9264L85.8566 84.8723Z" fill="#F5F5F5"/>
<path d="M81.3463 92.9261L86.4734 95.9779L90.1627 99.2582L85.0356 96.2145L81.3463 92.9261Z" fill="#E0E0E0"/>
<path d="M83.4556 101.698L88.5827 104.75L82.7288 109.001L77.6017 105.949L83.4556 101.698Z" fill="#F5F5F5"/>
<path d="M77.6017 105.949L82.7288 109.001V116.606L77.6017 113.555V105.949Z" fill="#E0E0E0"/>
<path d="M106.397 74.256L101.27 71.2042L94.9027 75.0067L100.022 78.0586L106.397 74.256Z" fill="#F5F5F5"/>
<path d="M172.125 292.169L246.385 247.876C246.549 247.817 246.69 247.707 246.791 247.56C246.891 247.414 246.945 247.239 246.945 247.06C246.945 246.881 246.891 246.707 246.791 246.56C246.69 246.414 246.549 246.304 246.385 246.244L239.52 242.164C239.095 241.943 238.625 241.828 238.149 241.828C237.673 241.828 237.204 241.943 236.779 242.164L162.495 286.416C162.331 286.475 162.19 286.586 162.09 286.732C161.989 286.878 161.935 287.053 161.935 287.232C161.935 287.411 161.989 287.586 162.09 287.732C162.19 287.878 162.331 287.989 162.495 288.048L169.384 292.128C169.806 292.355 170.274 292.477 170.75 292.485C171.226 292.492 171.697 292.384 172.125 292.169Z" fill="#E0E0E0"/>
<path d="M244.347 76.8672L177.387 116.802C176.391 117.473 175.563 118.377 174.968 119.44C174.374 120.503 174.031 121.696 173.966 122.922V286.995C173.966 289.248 175.498 290.161 177.387 289.035L244.347 249.1C245.344 248.431 246.173 247.527 246.768 246.464C247.362 245.4 247.705 244.207 247.768 242.98V78.9072C247.768 76.6551 246.243 75.7411 244.347 76.8672Z" fill="#455A64"/>
<path d="M177.387 116.802L244.347 76.8672C246.038 75.8554 247.436 76.4837 247.72 78.2381C247.562 77.135 247.18 76.0791 246.599 75.1396C246.017 74.2001 245.25 73.3984 244.347 72.7872L241.566 71.1552C240.506 70.5997 239.334 70.3102 238.146 70.3102C236.957 70.3102 235.785 70.5997 234.725 71.1552L167.756 111.058C166.748 111.711 165.916 112.618 165.339 113.693L174.969 119.405C175.546 118.338 176.378 117.442 177.387 116.802Z" fill="#37474F"/>
<path d="M164.32 281.251C164.385 282.477 164.728 283.669 165.323 284.733C165.917 285.796 166.745 286.7 167.741 287.371L170.529 289.003C171.495 289.501 172.551 289.784 173.629 289.832C174.707 289.88 175.783 289.692 176.786 289.28C175.206 289.917 173.95 288.978 173.95 286.963V122.922C173.99 121.691 174.335 120.491 174.953 119.438L165.323 113.726C164.714 114.771 164.369 115.958 164.32 117.178V281.251Z" fill="#263238"/>
<path d="M179.227 138.663L242.53 100.923C243.668 100.254 244.584 100.8 244.584 102.147V223.584C244.546 224.32 244.34 225.036 243.983 225.674C243.626 226.313 243.128 226.854 242.53 227.256L179.251 264.996C178.113 265.673 177.197 265.127 177.197 263.772V142.335C177.233 141.601 177.435 140.887 177.788 140.249C178.141 139.611 178.634 139.068 179.227 138.663Z" fill="white"/>
<path d="M210.867 103.053C210.517 103.29 210.227 103.608 210.018 103.982C209.81 104.356 209.689 104.776 209.666 105.207C209.666 106.023 210.203 106.325 210.867 105.925C211.218 105.689 211.509 105.371 211.718 104.997C211.927 104.623 212.047 104.202 212.068 103.771C212.068 102.979 211.53 102.661 210.867 103.053Z" fill="#37474F"/>
<path d="M210.867 251.932C209.486 252.865 208.337 254.121 207.513 255.598C206.69 257.076 206.215 258.732 206.127 260.435C206.127 263.56 208.252 264.833 210.867 263.266C212.247 262.332 213.396 261.076 214.219 259.599C215.043 258.122 215.518 256.465 215.607 254.763C215.623 251.638 213.49 250.365 210.867 251.932Z" fill="#37474F"/>
<path d="M199.499 115.684C198.804 116.16 198.228 116.798 197.816 117.547C197.405 118.295 197.169 119.133 197.129 119.993C197.129 121.576 198.203 122.22 199.499 121.429C200.2 120.957 200.784 120.321 201.203 119.573C201.622 118.824 201.863 117.984 201.908 117.12C201.908 115.537 200.834 114.893 199.499 115.684Z" fill="#37474F"/>
<path d="M205.4 115.146C205.4 116.207 206.19 116.606 207.114 116.043L222.914 106.602C223.404 106.287 223.814 105.856 224.112 105.345C224.41 104.835 224.587 104.259 224.629 103.665C224.629 102.612 223.839 102.212 222.914 102.775L207.114 112.216C206.626 112.531 206.216 112.961 205.918 113.47C205.62 113.978 205.443 114.553 205.4 115.146Z" fill="#37474F"/>
<path d="M169.66 143.918C170.221 144.295 170.688 144.803 171.023 145.402C171.358 146 171.551 146.671 171.588 147.361C171.588 148.634 170.727 149.148 169.66 148.512C169.102 148.133 168.637 147.625 168.303 147.026C167.97 146.428 167.777 145.758 167.741 145.068C167.741 143.804 168.602 143.29 169.66 143.918Z" fill="#37474F"/>
<path d="M169.66 159.242C170.221 159.62 170.688 160.128 171.023 160.726C171.358 161.324 171.551 161.996 171.588 162.686C171.588 163.951 170.727 164.465 169.66 163.836C169.102 163.458 168.637 162.949 168.303 162.351C167.97 161.753 167.777 161.082 167.741 160.393C167.741 159.12 168.602 158.606 169.66 159.242Z" fill="#37474F"/>
<path d="M169.06 144.228C169.621 144.605 170.087 145.114 170.422 145.712C170.757 146.31 170.951 146.981 170.988 147.672C170.988 148.936 170.126 149.45 169.06 148.822C168.499 148.445 168.033 147.937 167.698 147.338C167.363 146.74 167.169 146.069 167.132 145.379C167.14 144.106 168.001 143.616 169.06 144.228Z" fill="#455A64"/>
<path d="M169.06 159.544C169.622 159.922 170.089 160.432 170.424 161.032C170.759 161.632 170.952 162.305 170.988 162.996C170.988 164.261 170.126 164.775 169.06 164.138C168.498 163.763 168.03 163.255 167.695 162.656C167.36 162.057 167.167 161.385 167.132 160.695C167.14 159.43 168.001 158.916 169.06 159.544Z" fill="#455A64"/>
<path d="M257.398 105.99C257.398 104.636 256.481 104.089 255.344 104.766L247.768 109.279L192.065 142.506C191.466 142.908 190.969 143.45 190.612 144.088C190.255 144.726 190.049 145.442 190.011 146.178V267.583C190.011 268.937 190.927 269.484 192.065 268.807L247.791 235.571L255.344 231.067C255.942 230.665 256.44 230.123 256.797 229.485C257.154 228.847 257.36 228.131 257.398 227.395V105.99Z" fill="white"/>
<path d="M258.188 105.99C258.237 105.581 258.169 105.166 257.992 104.796C257.814 104.427 257.535 104.12 257.189 103.914C256.844 103.707 256.447 103.611 256.048 103.636C255.65 103.661 255.267 103.808 254.949 104.056L247.72 108.373L191.67 141.829C190.948 142.299 190.348 142.944 189.921 143.708C189.495 144.471 189.254 145.33 189.221 146.211V267.583C189.189 267.99 189.265 268.399 189.44 268.765C189.615 269.132 189.884 269.442 190.216 269.664C190.499 269.833 190.821 269.921 191.148 269.916C191.611 269.902 192.063 269.764 192.46 269.517L248.55 236.061L255.762 231.76C256.48 231.285 257.077 230.639 257.503 229.877C257.929 229.115 258.172 228.258 258.211 227.378L258.188 105.99ZM247.736 234.665L247.088 235.057L191.701 268.089C191.608 268.163 191.5 268.214 191.386 268.239C191.271 268.265 191.152 268.264 191.038 268.236C190.935 268.17 190.832 267.942 190.832 267.566V146.178C190.873 145.586 191.044 145.011 191.331 144.496C191.619 143.982 192.015 143.541 192.491 143.208L247.823 110.16L255.723 105.435C255.816 105.362 255.924 105.31 256.039 105.285C256.154 105.259 256.272 105.261 256.387 105.288C256.489 105.354 256.592 105.582 256.592 105.958V227.395C256.551 227.987 256.381 228.562 256.093 229.077C255.806 229.591 255.409 230.032 254.933 230.365L247.72 234.665H247.736Z" fill="#BA68C8"/>
<path d="M223.704 134.199C230.814 129.972 236.542 133.383 236.542 141.862C236.542 150.34 230.791 160.63 223.704 164.824C216.618 169.018 210.867 165.64 210.867 157.17C210.867 148.7 216.618 138.434 223.704 134.199Z" fill="#BA68C8"/>
<path d="M223.704 140.858C226.003 139.487 227.868 140.597 227.868 143.306C227.789 144.798 227.372 146.251 226.648 147.545C225.925 148.84 224.916 149.94 223.704 150.756C221.405 152.127 219.541 151.017 219.541 148.308C219.619 146.816 220.037 145.363 220.76 144.069C221.484 142.774 222.492 141.674 223.704 140.858Z" fill="#BA68C8"/>
<path d="M231.818 155.481C231.818 150.976 228.76 149.148 224.976 151.401L222.606 152.812C218.83 155.064 215.765 160.548 215.765 165.052V166.268C217.953 167.011 220.702 166.611 223.665 164.824C226.947 162.733 229.722 159.894 231.778 156.525L231.818 155.481Z" fill="#BA68C8"/>
<path opacity="0.7" d="M223.704 140.858C226.003 139.487 227.868 140.597 227.868 143.306C227.789 144.798 227.372 146.251 226.648 147.545C225.925 148.84 224.916 149.94 223.704 150.756C221.405 152.127 219.541 151.017 219.541 148.308C219.619 146.816 220.037 145.363 220.76 144.069C221.484 142.774 222.492 141.674 223.704 140.858Z" fill="white"/>
<path opacity="0.7" d="M231.818 155.481C231.818 150.976 228.76 149.148 224.976 151.401L222.606 152.812C218.83 155.064 215.765 160.548 215.765 165.052V166.268C217.953 167.011 220.702 166.611 223.665 164.824C226.947 162.733 229.722 159.894 231.778 156.525L231.818 155.481Z" fill="white"/>
<path d="M198.867 183.469L215.386 173.62C216.176 173.172 216.752 173.531 216.752 174.436V174.999C216.727 175.49 216.59 175.967 216.353 176.393C216.115 176.818 215.784 177.179 215.386 177.447L198.867 187.296C198.116 187.745 197.5 187.378 197.5 186.48V185.917C197.526 185.427 197.663 184.95 197.9 184.525C198.138 184.099 198.469 183.738 198.867 183.469Z" fill="#BA68C8"/>
<path opacity="0.1" d="M198.867 183.469L215.386 173.62C216.176 173.172 216.752 173.531 216.752 174.436V174.999C216.727 175.49 216.59 175.967 216.353 176.393C216.115 176.818 215.784 177.179 215.386 177.447L198.867 187.296C198.116 187.745 197.5 187.378 197.5 186.48V185.917C197.526 185.427 197.663 184.95 197.9 184.525C198.138 184.099 198.469 183.738 198.867 183.469Z" fill="black"/>
<path d="M198.187 195.359L248.163 165.558C248.534 165.33 248.842 165.509 248.842 165.966V171.988C248.828 172.233 248.76 172.47 248.642 172.683C248.524 172.895 248.36 173.076 248.163 173.212L198.187 203.013C197.808 203.241 197.5 203.053 197.5 202.605V196.583C197.514 196.337 197.583 196.098 197.702 195.886C197.822 195.673 197.988 195.493 198.187 195.359Z" fill="#BA68C8"/>
<path opacity="0.2" d="M198.187 195.359L248.163 165.558C248.534 165.33 248.842 165.509 248.842 165.966V171.988C248.828 172.233 248.76 172.47 248.642 172.683C248.524 172.895 248.36 173.076 248.163 173.212L198.187 203.013C197.808 203.241 197.5 203.053 197.5 202.605V196.583C197.514 196.337 197.583 196.098 197.702 195.886C197.822 195.673 197.988 195.493 198.187 195.359Z" fill="white"/>
<path d="M198.867 210.259L215.386 200.41C216.176 199.961 216.752 200.328 216.752 201.226V201.789C216.728 202.279 216.591 202.757 216.354 203.182C216.116 203.608 215.784 203.969 215.386 204.237L198.867 214.086C198.116 214.543 197.5 214.176 197.5 213.27V212.707C197.527 212.217 197.664 211.74 197.902 211.315C198.139 210.89 198.47 210.528 198.867 210.259Z" fill="#BA68C8"/>
<path opacity="0.1" d="M198.867 210.259L215.386 200.41C216.176 199.961 216.752 200.328 216.752 201.226V201.789C216.728 202.279 216.591 202.757 216.354 203.182C216.116 203.608 215.784 203.969 215.386 204.237L198.867 214.086C198.116 214.543 197.5 214.176 197.5 213.27V212.707C197.527 212.217 197.664 211.74 197.902 211.315C198.139 210.89 198.47 210.528 198.867 210.259Z" fill="black"/>
<path d="M198.187 222.148L248.163 192.348C248.534 192.119 248.842 192.307 248.842 192.756V198.778C248.828 199.022 248.76 199.26 248.642 199.472C248.524 199.684 248.36 199.866 248.163 200.002L198.187 229.802C197.808 230.03 197.5 229.851 197.5 229.394V223.372C197.514 223.126 197.583 222.888 197.702 222.675C197.822 222.463 197.988 222.282 198.187 222.148Z" fill="#BA68C8"/>
<path opacity="0.2" d="M198.187 222.148L248.163 192.348C248.534 192.119 248.842 192.307 248.842 192.756V198.778C248.828 199.022 248.76 199.26 248.642 199.472C248.524 199.684 248.36 199.866 248.163 200.002L198.187 229.802C197.808 230.03 197.5 229.851 197.5 229.394V223.372C197.514 223.126 197.583 222.888 197.702 222.675C197.822 222.463 197.988 222.282 198.187 222.148Z" fill="white"/>
<path d="M218.119 225.567L237.869 213.808C238.659 213.351 239.244 213.719 239.244 214.624V220.924C239.218 221.415 239.08 221.893 238.841 222.318C238.602 222.744 238.269 223.105 237.869 223.372L218.119 235.139C217.329 235.587 216.752 235.22 216.752 234.323V228.015C216.78 227.525 216.918 227.049 217.155 226.624C217.392 226.199 217.722 225.837 218.119 225.567Z" fill="#BA68C8"/>
<path opacity="0.1" d="M218.119 225.567L237.869 213.808C238.659 213.351 239.244 213.719 239.244 214.624V220.924C239.218 221.415 239.08 221.893 238.841 222.318C238.602 222.744 238.269 223.105 237.869 223.372L218.119 235.139C217.329 235.587 216.752 235.22 216.752 234.323V228.015C216.78 227.525 216.918 227.049 217.155 226.624C217.392 226.199 217.722 225.837 218.119 225.567Z" fill="black"/>
<path d="M264.887 198.982C264.887 198.982 255.186 185.159 254.617 183.478C254.167 182.237 254.617 180.393 254.759 179.536C254.901 178.68 255.028 176.77 255.17 176.272C255.407 175.342 254.246 175.53 253.59 176.378C252.934 177.227 252.713 178.924 252.373 179.202C252.034 179.479 249.45 175.587 248.099 173.792C246.749 171.996 245.903 170.903 245.074 171.572C244.481 172.054 244.924 173.098 245.903 174.632C246.475 175.458 247.003 176.316 247.483 177.203C247.633 177.537 246.828 177.562 246.393 178.255C246.053 178.794 246.393 179.667 245.919 180.083C245.627 180.312 245.428 180.644 245.358 181.016C245.288 181.388 245.353 181.773 245.54 182.099C246.419 183.525 247.553 184.766 248.882 185.754C250.335 186.791 250.92 187.158 251.781 188.569C252.642 189.981 260.368 204.4 260.89 205.265C261.411 206.13 262.414 207.892 263.939 207.941C265.464 207.99 277.946 196.893 278.586 196.338C280.64 194.567 281.295 194.314 281.643 195.905C281.763 196.471 281.853 197.043 281.912 197.619C282.156 199.643 283.492 206.872 283.492 206.872C283.492 206.872 289.812 210.03 295.002 208.504C300.192 206.978 301.946 204.702 301.946 204.702L299.347 200.328C300.05 198.525 303.297 191.213 304.347 186.097L288.073 183.38C287.742 183.306 287.204 183.168 286.493 182.98C285.601 182.735 283.334 181.927 281.619 183.478C276.026 188.512 264.903 198.982 264.903 198.982" fill="#FFA8A7"/>
<path d="M297.151 283.797L294.236 287.983C295.56 288.622 297.008 288.942 298.47 288.921C301.085 289.019 301.804 288.105 301.898 287.926C302.341 286.946 301.654 285.184 301.464 283.666L297.151 283.797Z" fill="#37474F"/>
<path d="M294.401 285.975C294.401 285.975 290.862 285.739 288.421 285.429C285.98 285.119 284.045 286.343 284.613 287.379C285.182 288.415 286.533 289.28 288.634 290.006C290.428 290.635 292.584 291.084 294.449 291.638C296.313 292.193 297.609 292.92 298.691 292.528C299.9 292.095 300.421 291.598 300.319 290.684C300.055 289.384 299.728 288.098 299.339 286.832L294.401 285.975Z" fill="#37474F"/>
<path d="M301.899 279.594C301.899 279.594 301.456 283.397 301.424 284.213C301.393 285.029 297.83 285.29 297.151 283.797L297.04 279.145L301.899 279.594Z" fill="#F28F8F"/>
<path d="M298.312 281.928L299.584 287.705C299.584 287.705 299.702 288.407 296.795 288.856C293.888 289.305 289.322 287.281 288.54 286.873C287.757 286.465 287.671 285.641 290.53 285.804C293.39 285.967 294.401 285.975 294.401 285.975L293.469 283.421L298.312 281.928Z" fill="#FFA8A7"/>
<path d="M304.3 186.048L306.315 185.469C306.315 185.469 310.525 199.235 310.991 200.565C311.457 201.895 311.987 203.298 311.078 204.938C309.996 206.889 304.3 214.73 304.3 214.73L300.682 211.075L304.79 203.306L301.156 195.718L304.3 186.048Z" fill="#F28F8F"/>
<path d="M283.61 168.169C283.138 167.254 282.898 166.229 282.913 165.192C282.928 164.154 283.198 163.138 283.697 162.237C285.704 158.394 290.175 156.525 295.5 157.235C297.964 157.57 300.872 159.683 302.459 162.841C304.213 166.342 304.379 173.392 304.829 176.06L283.61 168.169Z" fill="#37474F"/>
<path d="M283.468 169.679C283.468 169.679 282.204 172.168 282.425 172.396C282.753 172.594 283.111 172.732 283.484 172.804L283.468 169.679Z" fill="#FFA8A7"/>
<path d="M287.307 161.813C285.933 162.735 283.563 164.432 283.46 170.022C283.349 175.734 284.139 177.619 284.961 178.28C285.514 178.728 288.761 178.5 290.151 178.165C291.542 177.831 295.547 175.783 296.993 172.674C298.691 169.018 298.343 163.698 295.823 162.066C294.541 161.282 293.086 160.848 291.597 160.804C290.107 160.76 288.631 161.107 287.307 161.813Z" fill="#FFA8A7"/>
<path d="M301.898 204.669C304.332 208.586 306.638 212.013 307.144 216.436C308.187 225.73 304.774 236.354 304.039 243.233C305.421 245.19 306.218 247.522 306.33 249.941C306.33 252.789 301.898 279.594 301.898 279.594C301.898 279.594 298.675 280.606 297.04 279.145L293.998 229.835L295.578 223.829L301.898 204.669Z" fill="#BA68C8"/>
<path opacity="0.2" d="M301.898 204.669C304.332 208.586 306.638 212.013 307.144 216.436C308.187 225.73 304.774 236.354 304.039 243.233C305.421 245.19 306.218 247.522 306.33 249.941C306.33 252.789 301.898 279.594 301.898 279.594C301.898 279.594 298.675 280.606 297.04 279.145L293.998 229.835L295.578 223.829L301.898 204.669Z" fill="black"/>
<path d="M293.998 229.835L295.578 223.829C298.604 223.006 301.522 221.809 304.268 220.263C304.268 220.263 302.625 223.356 297.901 225.053L295.46 232.764L295.255 250.43L293.998 229.835Z" fill="#BA68C8"/>
<path opacity="0.3" d="M293.998 229.835L295.578 223.829C298.604 223.006 301.522 221.809 304.268 220.263C304.268 220.263 302.625 223.356 297.901 225.053L295.46 232.764L295.255 250.43L293.998 229.835Z" fill="black"/>
<path d="M301.898 204.669C303.202 206.872 306.315 210.626 305.651 214.241C304.861 218.615 302.57 221.691 295.602 223.829L289.061 248.309C289.061 248.309 292.466 251.573 293.509 254.731C294.551 257.889 298.312 281.944 298.312 281.944C298.312 281.944 297.143 283.911 293.469 283.438C293.469 283.438 280.663 253.246 279.763 251.279C278.67 249.287 278.287 246.963 278.68 244.71C279.083 241.544 283.42 206.889 283.42 206.889L301.898 204.669Z" fill="#BA68C8"/>
<path opacity="0.2" d="M301.898 204.669C303.202 206.872 306.315 210.626 305.651 214.241C304.861 218.615 302.57 221.691 295.602 223.829L289.061 248.309C289.061 248.309 292.466 251.573 293.509 254.731C294.551 257.889 298.312 281.944 298.312 281.944C298.312 281.944 297.143 283.911 293.469 283.438C293.469 283.438 280.663 253.246 279.763 251.279C278.67 249.287 278.287 246.963 278.68 244.71C279.083 241.544 283.42 206.889 283.42 206.889L301.898 204.669Z" fill="black"/>
<path d="M304.3 186.048L288.026 183.331C287.694 183.257 287.157 183.119 286.446 182.931C286.446 182.931 285.751 193.474 281.572 195.889C281.675 196.395 281.761 196.958 281.84 197.603C282.085 199.626 283.42 206.856 283.42 206.856C283.42 206.856 289.74 210.014 294.931 208.488C300.121 206.962 301.875 204.685 301.875 204.685L299.276 200.312C300.002 198.492 303.273 191.181 304.3 186.048Z" fill="#BA68C8"/>
<path opacity="0.7" d="M304.3 186.048L288.026 183.331C287.694 183.257 287.157 183.119 286.446 182.931C286.446 182.931 285.751 193.474 281.572 195.889C281.675 196.395 281.761 196.958 281.84 197.603C282.085 199.626 283.42 206.856 283.42 206.856C283.42 206.856 289.74 210.014 294.931 208.488C300.121 206.962 301.875 204.685 301.875 204.685L299.276 200.312C300.002 198.492 303.273 191.181 304.3 186.048Z" fill="white"/>
<path d="M300.01 198.574C297.849 199.914 295.585 201.069 293.24 202.025C295.368 201.981 297.452 201.387 299.299 200.295L300.01 198.574Z" fill="#BA68C8"/>
<path d="M286.904 162.09C286.904 162.09 286.114 167.394 287.979 170.511C287.979 170.511 288.674 168.398 290.404 168.798C292.134 169.198 292.229 171.556 291.012 172.878C290.703 173.249 290.299 173.522 289.846 173.666C289.393 173.81 288.91 173.82 288.453 173.694C288.453 173.694 288.176 177.529 288.026 180.744C287.876 183.959 287.054 190.968 290.554 193.8C294.054 196.632 302.839 197.627 306.954 191.687C309.245 188.382 306.204 182.539 304.79 175.987C303.486 169.965 302.752 161.038 296.566 159.601C290.38 158.165 286.904 162.09 286.904 162.09Z" fill="#37474F"/>
<path d="M309.601 89.6213L308.297 90.4373C308.407 89.9582 308.468 89.4687 308.479 88.9766C308.479 86.243 306.623 85.1414 304.332 86.5286C303.634 86.963 303.012 87.5146 302.491 88.1606C302.491 84.4886 299.995 82.9954 296.914 84.8314C295.29 85.925 293.939 87.3986 292.97 89.1325C292.001 90.8664 291.441 92.8119 291.336 94.811C291.336 94.9987 291.336 95.1782 291.336 95.3578C290.543 95.2546 289.739 95.4454 289.069 95.8963C287.862 96.7088 286.857 97.804 286.136 99.0927C285.416 100.382 284.999 101.828 284.921 103.314C284.921 103.659 284.955 104.004 285.024 104.342L284.329 104.758C282.441 105.884 280.908 108.079 280.908 109.654C280.908 111.229 282.441 111.604 284.329 110.47L309.609 95.4149C311.497 94.2888 313.03 92.0938 313.03 90.5189C313.03 88.944 311.489 88.487 309.601 89.6213Z" fill="#EBEBEB"/>
</svg>
